:version 1.10
:name ASF
:units
  mass 1
  length 1
  angle deg
:documentation
  ASF file generated by Kaydara
:root
  axis xyz
  order  tx ty tz rx ry rz
  position 0 0 0
  orientation 0 0 0
:bonedata
  begin
    id 1
    name RightUpLegDummy
    direction -1 2.30186e-007 8.31532e-007
    length 4.04083
    axis 0 0 0 xyz
  end
  begin
    id 2
    name RightUpLeg
    direction -0.000919234 -0.999985 0.00544864
    length 17.4221
    axis -3.80308 -0.00076134 -0.0523649 xyz
    dof rx ry rz
  end
  begin
    id 3
    name RightLeg
    direction -0.000919271 -0.999984 -0.00555045
    length 17.1239
    axis 4.00314 0.0181274 -0.183583 xyz
    dof rx ry rz
  end
  begin
    id 4
    name RightFoot
    direction -2.57843e-005 -4.04509e-007 1
    length 6.72091
    axis 8.18909e-005 -0.122003 -0.403008 xyz
    dof rx ry rz
  end
  begin
    id 5
    name RightToes
    direction 0.00116825 -0.014069 0.9999
    length 3.85082
    axis 0.000514414 0.540638 -0.356797 xyz
    dof rx ry rz
  end
  begin
    id 6
    name SpineDummy
    direction 0.0168869 0.966876 -0.254689
    length 6.99894
    axis 0 0 0 xyz
  end
  begin
    id 7
    name Spine
    direction -0.0132008 0.999903 0.00446247
    length 11.1999
    axis -0.00148109 0.00725429 0.756411 xyz
    dof rx ry rz
  end
  begin
    id 8
    name Spine1
    direction 0 0 0
    length 0
    axis -0.000934958 0.0245693 1.46543 xyz
    dof rx ry rz
  end
  begin
    id 9
    name HEadDummy
    direction -0.0255732 0.999672 0.00128215
    length 3.43865
    axis -0.000934958 0.0245693 1.46543 xyz
  end
  begin
    id 10
    name HEad
    direction -0.0472656 0.980052 0.19304
    length 5.12695
    axis -0.000934954 0.0245693 1.46543 xyz
    dof rx ry rz
  end
  begin
    id 11
    name LeftShoulder1Dummy
    direction 0.953098 0.301717 -0.023914
    length 3.68488
    axis -0.000934958 0.0245693 1.46543 xyz
  end
  begin
    id 12
    name LeftShoulder1
    direction 0.962466 0.271167 0.0112566
    length 3.13809
    axis -0.000934958 0.0245693 1.46543 xyz
    dof rx ry rz
  end
  begin
    id 13
    name LeftArm
    direction 0.999943 0.00455037 -0.00961766
    length 11.3419
    axis -23.1648 0.685459 1.22814 xyz
    dof rx ry rz
  end
  begin
    id 14
    name LeftForeArm
    direction 0.999332 0.0131969 0.0340885
    length 8.70632
    axis -9.90633 0.618216 0.0826942 xyz
    dof rx ry rz
  end
  begin
    id 15
    name LeftHand
    direction 0.994373 -0.0366703 0.0993905
    length 5.32135
    axis 0.00675269 0.680415 0.445699 xyz
    dof rx ry rz
  end
  begin
    id 16
    name RightShoulderDummy
    direction -0.967298 0.252589 -0.0230903
    length 3.68488
    axis -0.000934958 0.0245693 1.46543 xyz
  end
  begin
    id 17
    name RightShoulder
    direction -0.975062 0.221602 0.0120823
    length 3.13809
    axis 0.216257 0.0246515 1.45863 xyz
    dof rx ry rz
  end
  begin
    id 18
    name RightArm
    direction -0.99886 -0.00851186 -0.0469687
    length 10.3947
    axis -23.196 0.23503 -0.532632 xyz
    dof rx ry rz
  end
  begin
    id 19
    name RightForeArm
    direction -0.99909 0.00114866 0.0426317
    length 8.68355
    axis -9.91764 -0.134943 0.610517 xyz
    dof rx ry rz
  end
  begin
    id 20
    name RightHand
    direction -0.992888 -0.0489538 0.10852
    length 5.28593
    axis -0.00275396 -0.197403 0.246414 xyz
    dof rx ry rz
  end
  begin
    id 21
    name LeftUpLegDummy
    direction 1 -2.30186e-007 -8.31532e-007
    length 4.04083
    axis 0 0 0 xyz
  end
  begin
    id 22
    name LeftUpLeg
    direction -0.000920097 -1 2.79241e-006
    length 17.4221
    axis -3.48782 0.00143434 -0.0532288 xyz
    dof rx ry rz
  end
  begin
    id 23
    name LeftLeg
    direction -0.000920097 -1 2.7912e-006
    length 17.1239
    axis 3.68162 -0.00806512 -0.0529896 xyz
    dof rx ry rz
  end
  begin
    id 24
    name LeftFoot
    direction -2.57845e-005 -3.987e-007 1
    length 6.72091
    axis 3.02372e-005 -0.00147829 -0.214229 xyz
    dof rx ry rz
  end
  begin
    id 25
    name LeftToes
    direction 0.00813577 -0.00488255 0.999955
    length 3.85048
    axis 3.89895e-005 -0.0014783 -0.214229 xyz
    dof rx ry rz
  end
:hierarchy
  begin
    root RightUpLegDummy SpineDummy LeftUpLegDummy
    RightUpLegDummy RightUpLeg
    RightUpLeg RightLeg
    RightLeg RightFoot
    RightFoot RightToes
    SpineDummy Spine
    Spine Spine1
    Spine1 HEadDummy LeftShoulder1Dummy RightShoulderDummy
    HEadDummy HEad
    LeftShoulder1Dummy LeftShoulder1
    LeftShoulder1 LeftArm
    LeftArm LeftForeArm
    LeftForeArm LeftHand
    RightShoulderDummy RightShoulder
    RightShoulder RightArm
    RightArm RightForeArm
    RightForeArm RightHand
    LeftUpLegDummy LeftUpLeg
    LeftUpLeg LeftLeg
    LeftLeg LeftFoot
    LeftFoot LeftToes
  end

:SAMPLES-PER-SECOND 30
:FULLY-SPECIFIED
:DEGREES
33
root  -44.2901 34.8353 36.381 -169.489 5.98502 179.71
RightUpLeg  -9.27828 -17.2739 2.93926
RightLeg  4.63755 -1.86362 -0.0299433
RightFoot  3.50513 0.0166306 0.0194632
RightToes  -20.9846 -0.0873622 -0.185173
Spine  -2.72575 -0.327205 -0.171363
Spine1  -5.51832 -0.576381 0.335865
HEad  -85.3526 -54.2337 16.2046
LeftShoulder1  -1.94126e-019 -3.10601e-018 -2.51263e-017
LeftArm  -11.5697 25.355 -82.1037
LeftForeArm  33.3887 -16.3564 -2.69077
LeftHand  -0.526649 -3.3186 7.26736
RightShoulder  -4.96962e-017 0 -2.36833e-017
RightArm  -25.8083 -23.462 79.1996
RightForeArm  57.7804 14.3667 1.18294
RightHand  -0.418911 -0.0431927 -9.13652
LeftUpLeg  -7.28987 1.9961 -0.818487
LeftLeg  4.09158 15.3577 0.107967
LeftFoot  3.86008 -0.0345538 1.20655
LeftToes  -19.4012 1.46665e-006 1.03344e-007
34
root  -44.272 34.8439 36.379 -169.536 6.58611 179.769
RightUpLeg  -9.17613 -16.7796 2.96239
RightLeg  4.45928 -1.77393 -0.0229612
RightFoot  3.64039 0.0164699 0.0217597
RightToes  -20.9925 -0.0873622 -0.185173
Spine  -2.73851 -0.415674 -0.211475
Spine1  -5.54231 -0.752516 0.267578
HEad  -88.3151 -57.7638 19.3536
LeftShoulder1  -1.94126e-019 -3.10601e-018 -2.51263e-017
LeftArm  -11.5679 25.6753 -82.1177
LeftForeArm  33.4772 -16.2065 -2.66646
LeftHand  -0.531107 -3.33467 7.31426
RightShoulder  -4.96962e-017 0 -2.36833e-017
RightArm  -25.5124 -23.1587 79.271
RightForeArm  57.7046 14.4092 1.17783
RightHand  -0.425813 0.0322977 -9.16432
LeftUpLeg  -7.06809 3.3776 -0.845369
LeftLeg  3.85568 14.6616 0.0434795
LeftFoot  3.86012 -0.0313962 1.15747
LeftToes  -19.2157 1.46665e-006 1.03344e-007
35
root  -44.2671 34.8506 36.3925 -169.53 6.96542 179.863
RightUpLeg  -9.14228 -16.4385 3.03868
RightLeg  4.29708 -1.74404 -0.0176427
RightFoot  3.78473 0.016283 0.0244301
RightToes  -20.9191 -0.0873622 -0.185173
Spine  -2.75387 -0.617083 -0.202632
Spine1  -5.57235 -1.15105 0.299389
HEad  -89.5697 -59.0351 21.7384
LeftShoulder1  -1.94126e-019 -3.10601e-018 -2.51263e-017
LeftArm  -11.6344 25.93 -82.222
LeftForeArm  33.8746 -15.9548 -2.63264
LeftHand  -0.53669 -3.36701 7.36324
RightShoulder  -4.96962e-017 0 -2.36833e-017
RightArm  -25.207 -22.9164 79.2563
RightForeArm  57.4527 14.6564 1.14682
RightHand  -0.425554 0.0948839 -9.12419
LeftUpLeg  -6.9426 3.49359 -0.775833
LeftLeg  3.65278 14.9104 -0.00796888
LeftFoot  3.91579 -0.0335516 1.19097
LeftToes  -19.2856 1.46665e-006 1.03344e-007
36
root  -44.2606 34.8635 36.3983 -169.567 7.60161 179.847
RightUpLeg  -9.11816 -15.8522 2.96862
RightLeg  4.20778 -1.71446 -0.0146686
RightFoot  3.9357 0.0160686 0.0274933
RightToes  -21.0715 -0.0873622 -0.185173
Spine  -2.77247 -0.707988 -0.20274
Spine1  -5.60801 -1.33261 0.310159
HEad  -90.1186 -59.483 23.0857
LeftShoulder1  -1.94126e-019 -3.10601e-018 -2.51263e-017
LeftArm  -11.5239 26.0459 -82.3532
LeftForeArm  34.2941 -15.4164 -2.55371
LeftHand  -0.541595 -3.42355 7.38414
RightShoulder  -4.96962e-017 0 -2.36833e-017
RightArm  -24.5722 -22.9352 79.1552
RightForeArm  56.6108 15.157 1.09714
RightHand  -0.42039 0.0777921 -9.12549
LeftUpLeg  -6.75256 3.1431 -0.797485
LeftLeg  3.47494 15.7772 -0.0567221
LeftFoot  4.05076 -0.040163 1.29374
LeftToes  -19.4525 1.46665e-006 1.03344e-007
37
root  -44.2525 34.8627 36.4133 -169.611 8.00862 179.951
RightUpLeg  -9.0581 -15.5812 3.04703
RightLeg  4.0978 -1.57004 -0.0103625
RightFoot  4.02484 0.0156026 0.0341527
RightToes  -20.9935 -0.0873622 -0.185173
Spine  -2.77627 -0.832058 -0.154064
Spine1  -5.61508 -1.57805 0.415005
HEad  -90.8294 -59.7661 24.1748
LeftShoulder1  -1.94126e-019 -3.10601e-018 -2.51263e-017
LeftArm  -10.6162 26.1917 -82.309
LeftForeArm  33.8965 -15.6207 -2.60497
LeftHand  -0.38174 -2.14925 6.07609
RightShoulder  -4.96962e-017 0 -2.36833e-017
RightArm  -24.017 -23.0528 78.9971
RightForeArm  55.7837 15.633 1.06628
RightHand  -0.41909 -0.00817272 -9.08421
LeftUpLeg  -6.62783 4.08576 -0.767808
LeftLeg  3.34936 15.3579 -0.0885073
LeftFoot  4.00296 -0.0372634 1.24867
LeftToes  -19.3548 1.46665e-006 1.03344e-007
38
root  -44.2557 34.8695 36.4323 -169.656 8.41434 179.943
RightUpLeg  -9.05394 -15.2998 3.00275
RightLeg  4.05071 -1.45586 -0.00835709
RightFoot  4.08585 0.0152049 0.0398364
RightToes  -20.7906 -0.0873622 -0.185173
Spine  -2.7737 -0.946269 -0.120157
Spine1  -5.61007 -1.80599 0.488834
HEad  -91.2971 -60.0778 24.5432
LeftShoulder1  -1.94126e-019 -3.10601e-018 -2.51263e-017
LeftArm  -10.9422 26.0549 -82.3898
LeftForeArm  34.3841 -15.4217 -2.58815
LeftHand  -0.396119 -2.28431 6.19679
RightShoulder  -4.96962e-017 0 -2.36833e-017
RightArm  -23.9448 -23.0916 78.8723
RightForeArm  55.5883 15.7681 1.0603
RightHand  -0.424952 0.0554656 -9.10911
LeftUpLeg  -6.52984 3.47686 -0.770125
LeftLeg  3.28653 16.2561 -0.111101
LeftFoot  4.063 -0.0427394 1.33379
LeftToes  -19.2682 1.46665e-006 1.03344e-007
39
root  -44.2435 34.869 36.4355 -169.683 8.93744 179.969
RightUpLeg  -9.05932 -14.9529 3.00322
RightLeg  4.04059 -1.28621 -0.00705865
RightFoot  4.1504 0.0146063 0.048389
RightToes  -20.8369 -0.0873622 -0.185173
Spine  -2.78832 -0.987567 -0.098752
Spine1  -5.6393 -1.89032 0.532109
HEad  -91.7886 -60.2956 24.8545
LeftShoulder1  -1.94126e-019 -3.10601e-018 -2.51263e-017
LeftArm  -10.9028 26.0352 -82.2459
LeftForeArm  34.4097 -15.7683 -2.64765
LeftHand  -0.396238 -2.32168 6.17129
RightShoulder  -4.96962e-017 0 -2.36833e-017
RightArm  -23.9907 -23.2471 78.7756
RightForeArm  55.5994 15.6508 1.069
RightHand  -0.439137 0.205476 -9.17314
LeftUpLeg  -6.46893 4.62747 -0.816414
LeftLeg  3.31203 15.706 -0.100554
LeftFoot  3.99304 -0.0387152 1.27124
LeftToes  -19.2189 1.46665e-006 1.03344e-007
40
root  -44.2484 34.8629 36.4574 -169.722 9.23347 -179.998
RightUpLeg  -9.14295 -14.6756 3.00489
RightLeg  4.18479 -1.2756 -0.0101839
RightFoot  4.11122 0.0146314 0.0480306
RightToes  -20.7202 -0.0873622 -0.185173
Spine  -2.80718 -1.05647 -0.0903753
Spine1  -5.67809 -2.03016 0.545787
HEad  -92.0383 -60.4599 24.9753
LeftShoulder1  -1.94126e-019 -3.10601e-018 -2.51263e-017
LeftArm  -10.704 25.9113 -82.0193
LeftForeArm  34.4005 -16.3376 -2.74839
LeftHand  -0.403922 -2.31513 6.29195
RightShoulder  -4.96962e-017 0 -2.36833e-017
RightArm  -24.3375 -23.4321 78.7465
RightForeArm  55.8986 15.2989 1.09553
RightHand  -0.42809 0.0269084 -9.22176
LeftUpLeg  -6.47955 4.73785 -0.813802
LeftLeg  3.42637 15.8712 -0.070324
LeftFoot  3.90372 -0.0377807 1.25671
LeftToes  -19.1458 1.46665e-006 1.03344e-007
41
root  -44.2481 34.8564 36.4738 -169.753 9.55302 -179.982
RightUpLeg  -9.26166 -14.4397 2.99823
RightLeg  4.39241 -1.19968 -0.0138465
RightFoot  4.05997 0.0146343 0.0479901
RightToes  -20.7348 -0.0873622 -0.185173
Spine  -2.82085 -1.07145 -0.0864395
Spine1  -5.70564 -2.06509 0.546702
HEad  -92.19 -60.5282 25.0026
LeftShoulder1  -1.94126e-019 -3.10601e-018 -2.51263e-017
LeftArm  -10.5871 25.6856 -81.783
LeftForeArm  34.5272 -16.9036 -2.84692
LeftHand  -0.409173 -2.38178 6.3213
RightShoulder  -4.96962e-017 0 -2.36833e-017
RightArm  -24.9235 -23.6648 78.6854
RightForeArm  56.5472 14.7858 1.14418
RightHand  -0.421871 -0.0616265 -9.23095
LeftUpLeg  -6.51802 4.912 -0.82176
LeftLeg  3.60201 16.0034 -0.0224917
LeftFoot  3.81163 -0.0365818 1.23807
LeftToes  -19.2085 1.46665e-006 1.03344e-007
42
root  -44.255 34.8494 36.4962 -169.755 9.72562 179.984
RightUpLeg  -9.46973 -14.3848 2.9623
RightLeg  4.69049 -1.08712 -0.0180836
RightFoot  3.95907 0.0146284 0.0480733
RightToes  -20.7671 -0.0873622 -0.185173
Spine  -2.83506 -1.09135 -0.107699
Spine1  -5.73388 -2.11305 0.49446
HEad  -92.7021 -60.5537 25.3291
LeftShoulder1  -1.94126e-019 -3.10601e-018 -2.51263e-017
LeftArm  -10.0391 25.4028 -81.4461
LeftForeArm  34.1902 -17.5976 -2.97063
LeftHand  -0.285994 -0.966164 5.34987
RightShoulder  -4.96962e-017 0 -2.36833e-017
RightArm  -25.7119 -23.9083 78.6107
RightForeArm  57.5425 14.1491 1.21678
RightHand  -0.453559 0.188762 -9.49926
LeftUpLeg  -6.64586 3.96816 -0.833087
LeftLeg  3.86442 17.0047 0.0528793
LeftFoot  3.74926 -0.0398426 1.28876
LeftToes  -19.2619 1.46665e-006 1.03344e-007
